<?xml version="1.0" ?>

<!DOCTYPE svg  PUBLIC '-//W3C//DTD SVG 1.1//EN'  'http://www.w3.org/Graphics/SVG/1.1/DTD/svg11.dtd'>

<!-- Uploaded to: SVG Repo, www.svgrepo.com, Generator: SVG Repo Mixer Tools -->
<svg fill="#000000" width="800px" height="800px" viewBox="0 0 1069 1069" style="fill-rule:evenodd;clip-rule:evenodd;stroke-linejoin:round;stroke-miterlimit:2;" version="1.1" xml:space="preserve" xmlns="http://www.w3.org/2000/svg" xmlns:serif="http://www.serif.com/" xmlns:xlink="http://www.w3.org/1999/xlink">

<rect height="1066.67" id="Microphone" style="fill:none;" width="1066.67" x="1.411" y="1.665"/>

<g>

<path d="M796.968,405.325c9.757,-30.323 54.65,-28.001 60.185,5.103c0.309,1.166 0.485,2.719 0.505,4.712l0.003,0.422l0,30.977c0.001,83.54 -32.379,163.742 -90.185,223.822l-1.552,1.603l-1.404,1.43l-1.414,1.423l-1.46,1.451l-1.463,1.435l-1.465,1.419l-1.463,1.399l-1.454,1.374l-2.029,1.89l-0.791,0.727l-1.515,1.38l-1.518,1.365l-1.519,1.349l-1.516,1.33l-1.507,1.304l-2.102,1.794l-0.818,0.69l-1.568,1.309l-1.57,1.294l-1.571,1.278l-1.568,1.259l-1.557,1.235l-2.169,1.695l-0.845,0.653l-1.619,1.236l-1.621,1.222l-1.621,1.207l-1.617,1.188l-1.607,1.165l-2.226,1.591l-2.542,1.78l-1.669,1.149l-1.669,1.134l-1.665,1.116l-1.654,1.095l-2.275,1.482l-2.618,1.671l-1.715,1.076l-1.715,1.06l-1.71,1.043l-1.7,1.023l-2.317,1.371l-2.692,1.561l-1.759,1l-1.758,0.986l-1.753,0.969l-1.744,0.95l-2.35,1.258l-2.765,1.448l-1.799,0.924l-1.798,0.91l-1.795,0.894l-1.784,0.875l-2.38,1.146l-2.831,1.332l-1.837,0.847l-1.836,0.832l-1.831,0.816l-1.821,0.798l-2.412,1.038l-2.89,1.212l-1.871,0.767l-1.87,0.753l-1.864,0.737l-1.852,0.719c-0.485,0.188 -0.972,0.373 -1.458,0.558c-36.236,13.746 -74.994,20.987 -114.5,20.987c-0.056,0 -0.111,0 -0.167,0c-85.621,0 -167.735,-34.012 -228.278,-94.556c-60.543,-60.543 -94.555,-142.657 -94.555,-228.278l-0,-31.332c2.003,-41.245 60.364,-42.065 62.5,0.355c-0,-0 -0,13.563 -0,30.977c-0,69.045 27.428,135.262 76.25,184.084c48.822,48.822 115.038,76.25 184.083,76.25c0.056,0 0.111,0 0.167,0c40.067,0 79.181,-9.236 114.5,-26.532c1.53,-0.749 3.053,-1.513 4.571,-2.295l1.573,-0.816l2.273,-1.202l2.269,-1.23l2.564,-1.425l1.98,-1.126l2.431,-1.415l1.889,-1.124l2.51,-1.526l1.247,-0.773l2.444,-1.544l1.788,-1.154l2.471,-1.628l1.534,-1.033l2.121,-1.452l1.714,-1.197l1.212,-0.858l1.359,-0.975l2.238,-1.636l1.666,-1.24l1.19,-0.899l1.18,-0.902l1.541,-1.195l2.43,-1.922l1.167,-0.94l1.155,-0.941l1.468,-1.213l1.98,-1.663l1.573,-1.347l1.13,-0.98l1.38,-1.213l1.982,-1.772l1.537,-1.401l1.104,-1.018l1.259,-1.178l1.292,-1.225l2.221,-2.144l1.076,-1.057l1.531,-1.528l1.807,-1.832l1.55,-1.605l1.8,-1.894l1.542,-1.657l1.737,-1.897l1.517,-1.692l1.69,-1.917l1.475,-1.708l1.66,-1.954l1.441,-1.732l1.621,-1.982l1.424,-1.778l1.565,-1.987l1.387,-1.798l1.529,-2.016l1.353,-1.824l1.488,-2.04l1.309,-1.833l1.458,-2.078l1.298,-1.891l1.394,-2.066l1.265,-1.919l1.351,-2.084l1.702,-2.693l1.668,-2.713l1.634,-2.731l1.6,-2.75l1.566,-2.769l1.531,-2.786l1.497,-2.804l1.461,-2.821l1.428,-2.839l1.392,-2.855l1.356,-2.871l1.322,-2.887l1.286,-2.903l1.251,-2.918l1.215,-2.934l1.179,-2.948l0.576,-1.479l1.125,-2.969l1.089,-2.983l0.531,-1.497l1.035,-3.003l0.503,-1.506l0.494,-1.51l0.486,-1.513l0.476,-1.515l0.467,-1.519l0.457,-1.522l0.449,-1.526l0.439,-1.527l0.43,-1.531l0.42,-1.534l0.411,-1.537l0.402,-1.539l0.393,-1.542l0.383,-1.545l0.374,-1.548l0.365,-1.55l0.355,-1.552l0.346,-1.555l0.336,-1.558l0.327,-1.56l0.317,-1.563l0.308,-1.565l0.298,-1.567l0.289,-1.57l0.279,-1.571l0.27,-1.574l0.26,-1.577l0.251,-1.578l0.24,-1.58l0.232,-1.583l0.221,-1.584l0.212,-1.586l0.203,-1.589l0.192,-1.59l0.183,-1.592l0.173,-1.593l0.163,-1.596l0.154,-1.597l0.144,-1.599l0.134,-1.6c0.559,-6.934 0.842,-13.92 0.842,-20.935l0,-31.332c0,-3.679 0.637,-7.21 1.807,-9.882Zm-220.475,77.59l124.918,0c17.248,0 31.25,-14.003 31.25,-31.25c0,-17.247 -14.002,-31.25 -31.25,-31.25l-124.918,0c-17.248,0 -31.25,14.003 -31.25,31.25c-0,17.247 14.002,31.25 31.25,31.25Zm-0.082,-125l124.919,0c17.247,0 31.25,-14.003 31.25,-31.25c-0,-17.247 -14.003,-31.25 -31.25,-31.25l-124.919,0c-17.247,0 -31.25,14.003 -31.25,31.25c0,17.247 14.003,31.25 31.25,31.25Z" style="fill-opacity:0.5;"/>

<path d="M451.411,941.248l166.667,0c17.247,0 31.25,-14.002 31.25,-31.25c-0,-17.247 -14.003,-31.25 -31.25,-31.25l-166.667,0c-17.247,0 -31.25,14.003 -31.25,31.25c0,17.248 14.003,31.25 31.25,31.25Zm52.084,-173.375c-94.243,-9.07 -176.655,-58.639 -229.61,-131.103c-10.176,-13.925 -7.132,-33.493 6.793,-43.669c13.925,-10.176 33.493,-7.133 43.669,6.793c47.388,64.846 124.013,106.979 210.481,106.979l0.084,0c36.953,0 72.108,-7.702 103.959,-21.594l-0,-0.102c3.52,-1.534 7.007,-3.146 10.457,-4.836l36.591,-21.798l31.928,-26.861l28.503,-33.38l23.85,-40.526l15.054,-40.097l7.719,-37.449l1.346,-12.756c0.487,-6.039 0.765,-12.117 0.828,-18.22l0.014,-2.715l0,-31.332l0.047,-1.711l0.175,-2.002l0.364,-2.228l0.531,-2.072l0.526,-1.482l0.164,-0.387c9.757,-30.323 54.65,-28.001 60.185,5.103l0.309,1.614l0.151,1.679l0.045,1.42l0.003,0.422c0,2.121 0,13.602 0,31.061c0,167.768 -128.006,305.639 -291.666,321.272l-0,37.936c-0,17.247 -14.003,31.25 -31.25,31.25c-17.248,-0 -31.25,-14.003 -31.25,-31.25l-0,-37.959Zm31.25,-633.916l-0,0.002l-0.436,0.057c0.142,-0.039 0.288,-0.059 0.436,-0.059c-52.491,-0 -102.832,20.852 -139.949,57.969c-37.116,37.116 -57.968,87.457 -57.968,139.948c-0,40.716 -0,84.283 -0,124.999c-0,52.491 20.852,102.832 57.968,139.948c37.117,37.117 87.458,57.969 139.949,57.969c-0,0 -0,0 -0,0c52.491,0 102.832,-20.852 139.948,-57.969c37.117,-37.116 57.969,-87.457 57.968,-139.948l0,-124.999c0.001,-52.491 -20.851,-102.832 -57.968,-139.949c-37.116,-37.116 -87.457,-57.968 -139.948,-57.968Zm-0.669,62.501l1.432,0.001c35.64,0.201 69.776,14.445 94.991,39.661c25.395,25.395 39.662,59.839 39.662,95.754l0,124.999c0,35.915 -14.267,70.359 -39.662,95.754c-25.396,25.396 -59.84,39.663 -95.754,39.663c-35.915,0 -70.359,-14.267 -95.755,-39.663c-25.395,-25.395 -39.662,-59.839 -39.662,-95.754l-0,-124.999c-0,-35.915 14.267,-70.359 39.662,-95.754c25.239,-25.239 59.413,-39.486 95.086,-39.662Z"/>

</g>

</svg>