<svg xmlns="http://www.w3.org/2000/svg" viewBox="0 0 512 512">
  <rect width="512" height="512" rx="128" fill="#136dec"/>
  <path d="M144 256c0-17.7 14.3-32 32-32s32 14.3 32 32-14.3 32-32 32-32-14.3-32-32zm96-64c-17.7 0-32 14.3-32 32v64c0 17.7 14.3 32 32 32s32-14.3 32-32v-64c0-17.7-14.3-32-32-32zm96 32c-17.7 0-32 14.3-32 32s14.3 32 32 32 32-14.3 32-32-14.3-32-32-32z" fill="#ffffff"/>
  <path d="M368 128H144c-26.5 0-48 21.5-48 48v16h320v-16c0-26.5-21.5-48-48-48z" fill="#ffffff" fill-opacity="0.3"/>
</svg>